<svg t="1720361090342" class="icon" viewBox="0 0 1024 1024" version="1.1" xmlns="http://www.w3.org/2000/svg" p-id="23929" width="32" height="32"><path d="M528.554667 66.184533a34.133333 34.133333 0 0 1 13.312 13.312l466.8416 842.615467a34.133333 34.133333 0 0 1-29.832534 50.688H45.124267a34.133333 34.133333 0 0 1-29.866667-50.688L482.133333 79.530667a34.133333 34.133333 0 0 1 46.421334-13.312z" fill="#1e80ff" p-id="23930" data-spm-anchor-id="a313x.search_index.0.i31.683b3a818q1XEc" class="selected"></path><path d="M529.066667 307.2l78.779733 52.224 67.549867-32.3584 32.256 58.197333-104.209067 49.937067-77.9264-51.677867-99.669333 51.2-109.499734-58.811733 7.0656-16.4864 23.415467-42.257067 79.5648 42.734934L529.066667 307.2zM683.554133 741.649067a26.077867 26.077867 0 0 1 22.391467 4.5056c6.621867 4.9152 11.264 12.731733 12.970667 21.640533 8.226133 41.8816 44.305067 127.3856 93.184 205.0048h-73.659734c-42.0864-75.025067-69.905067-148.2752-78.165333-189.303467-3.003733-19.182933 6.7584-37.4784 23.278933-41.847466z" fill="#FFFFFF" p-id="23931"></path></svg>